<svg xmlns="http://www.w3.org/2000/svg" width="90" height="90" viewBox="0 0 90 90"><defs><filter id="a" x="0" y="0" width="90" height="90" filterUnits="userSpaceOnUse"><feOffset dy="5"/><feGaussianBlur stdDeviation="5" result="b"/><feFlood flood-color="#2f353a" flood-opacity=".102"/><feComposite operator="in" in2="b"/><feComposite in="SourceGraphic"/></filter></defs><g filter="url(#a)"><circle cx="30" cy="30" r="30" transform="translate(15 10)" fill="#8ba4b4"/></g><path d="M27 22h36v36H27z" fill="none"/><path d="M57.014 32.127h-1.5V44.14a1.506 1.506 0 01-1.5 1.5H35.991v1.5a3.012 3.012 0 003 3H54.01l6.007 6.007V35.13a3.012 3.012 0 00-3.003-3.003zm-4.5 7.508V29.12a3.012 3.012 0 00-3-3h-16.53a3.012 3.012 0 00-3 3v19.525l6.007-6.007h13.514a3.012 3.012 0 003.004-3.003z" fill="#fff"/></svg>