<svg xmlns="http://www.w3.org/2000/svg" width="60" height="60" viewBox="0 0 60 60"><defs><style>.a{fill:#d8a286;fill-rule:evenodd}.c{fill:#fff}</style></defs><path class="a" d="M32.936 59.28c.291-.142 1.395-.194 1.769-.384-1.808.135-1.808.065-1.769.384zM.685 28.164a7.7 7.7 0 00-.017 2.648c-.085-.777.149-1.935.017-2.648zM29.552 59.25a.585.585 0 00.325.066l.46-.028-.353-.068c-.225-.025-.423-.026-.432.03zm1.809-.006l-.167.068.36.044c0-.028.166-.053.1-.076a2.119 2.119 0 00-.293-.036zM34.304.519l3.162.7 1.2.363a19.835 19.835 0 012.537.92l-.058-.052 1.217.548c.379.122.831.431 1.2.572.657.376 1.341.7 1.913 1.091a3.631 3.631 0 00.784.457l1.53 1.045c.2.09.527.39.695.467a4.376 4.376 0 00.387.224 4.359 4.359 0 00-.965-.844l-1.81-1.238a5.638 5.638 0 00-1.577-.908l-1.189-.633a17.2 17.2 0 00-2.057-.9l-.767-.328a4.808 4.808 0 00-1.3-.445l-.484-.156a1.736 1.736 0 00-.416-.125l-.383-.105A19.95 19.95 0 0034.3.284c-.324-.046-.509-.035-.521.032s.205.146.525.203zm11.372 4.179l.028.018a1.972 1.972 0 01.394.261l-.394-.261c-.011 0-.022-.01-.032-.012zm10.052 42.65l-.014.021c-.016.024-.026.05-.042.074z"/><path d="M59.801 34.861v-.052a9.846 9.846 0 00.183-2.37 1.648 1.648 0 00-.07.192 2.466 2.466 0 00-.011-.483l-.023-.107.013-.141.023-1.96-.074-.387A32.366 32.366 0 0058.829 24l-.155-.4a47.19 47.19 0 00-1.615-4.513l-.225-.322-.174-.419a1.824 1.824 0 00-.363-.753 12.327 12.327 0 00-1.6-2.665 44.945 44.945 0 00-2.984-3.549c-.528-.549-.833-1.117-1.373-1.617-.524-.46-.614-.278-1.364-.888-.807-.6-1.588-1.28-2.46-1.9l-.051.067c-.012-.043-.048-.106.051-.067l-.34-.235-.05.069-1.055-.716-.391-.155-.125-.058-.077-.068c-.3-.235-.733-.377-.892-.576.2 0 .855.378.915.285a5 5 0 00-2.478-.992c-.238-.134-.574-.3-.55-.354.2-.157-.336-.334-1.025-.563-.561-.178-.727-.131-.709.006l-.378-.156a1.472 1.472 0 00-.413-.161l.054.044a3.9 3.9 0 00-.408-.172c-.483-.169-1.252-.357-.994-.48.206-.084-.109-.223-.674-.393a3.846 3.846 0 00-1.427-.282c.564.174 1.221.494 1.009.61-.242-.043-.522-.114-.807-.18a2.77 2.77 0 00-.55-.449c-.061-.077-.127-.145-.4-.213a.854.854 0 00-.468-.549c.268.018.557.046.844.073a9.164 9.164 0 012.489.771 5.662 5.662 0 001.643.5l2.3.956a53.593 53.593 0 015.395 2.866l-.034-.014c.972.591 1.816 1.461 2.757 2.152a7.863 7.863 0 011.221 1.079l.441.412c.3.259.606.6.9.912.9 1.09 1.764 2.039 2.519 3.074l-.068-.163.038.058.031.106a6.246 6.246 0 00.75 1l.128.174.1.184a14.47 14.47 0 001.075 1.889 3.564 3.564 0 01.2.34c.2.452.424.9.619 1.243.041.1.048.1.068.091.034.026.033-.013.011-.123a10.384 10.384 0 00-1.53-3.356l-.685-1.057a18.473 18.473 0 00-4.9-5.585 3.035 3.035 0 00-.666-.546 3.154 3.154 0 00-.684-.472l-.641-.51-1.037-.873a20.228 20.228 0 00-5.037-3.028c-.808-.373-1.7-.638-2.555-1.079-.63-.347-1.464-.677-1.191-.267.041.091-.5-.067-.844-.172-.647-.181-1.385-.44-2.083-.582a.979.979 0 01-.276-.065 1.269 1.269 0 00-.484-.1.965.965 0 01-.314-.064 18.736 18.736 0 00-1.837-.489 4.7 4.7 0 00-.8-.165c-.038-.074-.152-.135-.48-.173a3.244 3.244 0 00-.447-.066l-.109.018h-.038l.147-.021c-.075-.065-.224-.105-.6-.106L30.58.046v.007c-.037-.047-.187-.061-.45-.065a.839.839 0 01-.3.016c-.691.052-1.384.149-2.074.268a6.218 6.218 0 00-1.19.034 31.927 31.927 0 00-4.939.7v.028l-.006-.028a13.057 13.057 0 00-2.5.582 4.4 4.4 0 00-1.25.322 5.224 5.224 0 00-.965.282c-.44.158-.263.21-.52.334a1.383 1.383 0 00-.425.276c-.115.09-.669.332-.527.383.062.047.183.056.462-.011.117.082.445.041.923-.088l.089-.055v.007a.323.323 0 00-.092.048l1 .168c.044.111.179.179.614.091-.235.143-.466.289-.681.445a6.517 6.517 0 00-1.843 1.113 18.377 18.377 0 00-2.558 1.919l.056-.043c-.4.422-1.069.809-1.351 1.2v-.006a8.123 8.123 0 00-.673.652l-.06.092-.111.091-1.178 1.13a6.617 6.617 0 00-1.445 1.421c-.538.717-1.582 1.842-2.172 2.746a15.212 15.212 0 00-1.836 2.9l.049-.042c-.024.056-.03.053-.03.053l-.019-.01a27.28 27.28 0 00-1.629 3.227 10.6 10.6 0 00-.814 2.191c-.061.192-.123.383-.179.576A19.1 19.1 0 00.84 27.682a6.985 6.985 0 00-.052 2.3.391.391 0 01-.016.251 2.406 2.406 0 00-.093.759 8.376 8.376 0 00.057 2.367l.024.028c-.006 0-.016 0-.024-.028a3.472 3.472 0 00.071 1.268h.007a9.479 9.479 0 00.133 1.234.576.576 0 01.035.252 2.124 2.124 0 00.079.8 3.49 3.49 0 00.427 1.4 3.592 3.592 0 00.343 1.021l.394 1.267a16.753 16.753 0 00.821 2.057l.312.761a4.7 4.7 0 00.6 1.215l.232.445a1.709 1.709 0 00.207.377l.2.34a19.6 19.6 0 001.939 3.137c.2.258.337.379.392.34s-.037-.236-.223-.5L4.96 46.086l-.6-1.091a19.36 19.36 0 01-1.146-2.405v.077l-.474-1.228c-.183-.349-.283-.878-.448-1.235a26.006 26.006 0 00-.17-.58c.019.034.034.07.056.1h-.007l.127.223-.05-.236v.018-.03.012a2.072 2.072 0 00-.026-.338 2.664 2.664 0 00-.135-.78l-.018.005h-.007l.024-.008a1.191 1.191 0 00-.02-.259 24.309 24.309 0 00.874 2.667c.3.825.744 1.632 1.029 2.536.2.682.547 1.494.649 1.015.036-.092.308.4.473.707.327.577.663 1.272 1.054 1.857a.952.952 0 01.148.238 1.212 1.212 0 00.27.407.922.922 0 01.176.263 12.98 12.98 0 003.529 4.462 5.89 5.89 0 01.617.63 4.96 4.96 0 001.118 1.134 31.224 31.224 0 003.994 2.935l.008-.012.008-.012-.015.024a12.825 12.825 0 002.187 1.324 4.345 4.345 0 001.116.64 5.164 5.164 0 00.886.469c.424.194.337.034.608.125a1.431 1.431 0 00.5.1c.146.017.711.229.649.095-.01-.077-.089-.167-.334-.313-.024-.139-.285-.338-.716-.578l-.1-.024v-.007a.34.34 0 00.1.031l-.588-.815c.058-.129-.014-.3-.606-.632-.056-.115-.177-.252-.228-.38.429.2.9.381 1.315.523.445.15.707.136.741.055.108-.093-.392-.271-.69-.42-.358-.174-.632-.37-.653-.475-.041-.14.475.074.737.13a30 30 0 003.069.928 5.372 5.372 0 001.5.329l-.029-.021.032.008v.013a10.683 10.683 0 002.017.348.979.979 0 01-.153-.064l.032.006.121.058a7.768 7.768 0 001.94.162l-.064-.022.066.008v.014a13.35 13.35 0 003.231.109c.9-.133 2.446-.2 3.515-.435a15.8 15.8 0 003.391-.779h-.065c.058-.023.059-.017.059-.017l.006.021a27.494 27.494 0 006.173-2.419 20.675 20.675 0 003.692-2.182c.046.05.167.024.4-.146l.116-.138.005.005-.121.133a1.078 1.078 0 00.4-.081 6.242 6.242 0 01-.9.658l.026-.02c-.316.173-.751.505-1.056.627-.7.231-1.417.892-2.183 1.238l-.638.307c-.431.139-.965.512-1.433.642l-.6.239a10.931 10.931 0 01-2.365.884l-.118.049-.092.023c-2.425.58-4.192 1.209-6.063 1.638a31.1 31.1 0 0010.189-2.928l.7-.346a6.275 6.275 0 001.816-.942l.97-.6c.324-.159.712-.452 1.026-.634a2.3 2.3 0 01.293-.2 5.013 5.013 0 001.014-.717l.317-.237c.137-.087.32-.179.423-.259l.449-.432a1.332 1.332 0 00.428-.323l.035-.018h-.005c.06.007.175-.087.365-.267a.8.8 0 01.2-.217 28.734 28.734 0 002.631-3.669 11.807 11.807 0 00.8-1.387 3.913 3.913 0 00.55-.924c.1-.133.2-.259.3-.379a23.751 23.751 0 001.522-4.691 6.278 6.278 0 00.5-2.065 17.716 17.716 0 00.425-3.132zm-5.72-22.014l-.018.012s.009-.006 0-.039zM16.871 2.641c-.008-.02-.053-.032.045-.082.028-.027.1-.039.128-.062-.087.068-.183.121-.173.144zm3.7 56.72c-.008.02.014.06-.091.027-.039 0-.1-.041-.135-.046.106.012.212.037.222.019zm37.387-29.782h-.014v-.065zm-.187 3.958a7.95 7.95 0 00-.008-1.831 6.571 6.571 0 01.008 1.836zm.049-11.95c-.031-.028-.1-.19-.132-.212l-.058-.239zm-.244 3.639h.014c-.008.036-.02.14-.046.078a.431.431 0 00.037-.073zM57 31.195h.007l-.008.033zm-.674-2.252c.008.126.049.188.032.282-.018.253-.064-.026-.1-.153.03.007.062.007.068-.124zm-.4 4.441h.021l-.014.063c-.009.032-.006-.058-.006-.058zm-6.127 15.517l.149-.266a11.015 11.015 0 011.008-2.069 10.19 10.19 0 01-1.008 2.069.616.616 0 00-.021.118zm-37.726-.435c-.032-.019-.078-.069-.108-.081h-.005l-.018-.022-.068-.065a.487.487 0 01.065.068l.024.017.056.035c.021.025.036.035.054.052zm-5.159-1.5l-.038-.047c.055.035.078.017.063-.047l-.016-.027c.008.007.014.016.023.023-.274-.514-.508-1.2-.274-1.131a16.087 16.087 0 00.909 1.342l.5.72c.268.641.319.765.184.959-.164-.281-.405-.561-.657-.906a4.3 4.3 0 00-.67-.978c.015.063-.002.077-.024.094zm.815-9.373l.024-.006v.061zm-.388 1.727a.2.2 0 00-.114-.062.841.841 0 01-.148.4c.034-.165.026-.416.148-.4a1.861 1.861 0 00.036-.352c.051.173.018.246.078.416zm-.942 5.086l-.031-.057a2.642 2.642 0 00.307.439l-.022.012zm-.461-2.727l-.118-.2-.054-.153zm-.918-3.74c-.025.006-.067-.051-.111-.139l-.013-.064c.036.094.092.212.124.205zm-2.67-2.4a.567.567 0 01-.045-.115h.008a.307.307 0 00.037.122zm.766 2.762c-.055.017-.024.195.04.432a1.348 1.348 0 01-.154-.461c.009-.093.069-.015.115.036zm1.406-1.609a1.734 1.734 0 01-.2-.587 4.377 4.377 0 00.201.594zm.214 1.54c-.019-.2-.041-.354.029-.37-.055.017-.047.18-.028.377zm-2.781-9.061v.059h-.014v-.059zm-.178 1.175v.028c0 .01 0 .021-.007.032l-.052.424-.008.123v-.062l.007-.061a2.377 2.377 0 01.052-.424zm-.493 4.59a.081.081 0 00.074-.035l.025.248a1.179 1.179 0 00-.1-.213c-.077-.009-.161-.139-.244-.271a.777.777 0 01.242.277zM5.1 42.79l.155.372a1.423 1.423 0 00.175.4l-.006-.069a3.859 3.859 0 00.165.405c.22.454.628 1.12.357 1.029-.075-.031-.106-.007-.1.06l-.238-.462h-.006c0-.217-.308-.6-.452-.94a3.673 3.673 0 00-.27-.849c.101.119.172.123.221.06zm7.5-32.367l.009-.013zm19.921-6.029l-.006.038c0 .031-.159.007-.162.028.002-.024.159-.025.165-.06zm-1.949-.26c-.064-.006 0 0-.032-.007h-.159l.065-.008a3.092 3.092 0 01.536-.025c-.101.031-.346.014-.413.046zm.414.285a.476.476 0 01-.1 0h-.029l-.065.014h-.07c.036-.009.105-.006.135-.018v-.007h.029zm20.979 37a.376.376 0 01.088-.155l.016.007c-.034.061-.117.248-.107.156zm.068.2l-.025.045.006-.055c-.009.009-.018.021-.026.031v-.018c0-.005.022-.013.036-.033l-.011.021zm3.018-8.45l-.032.239a.339.339 0 00-.026-.155c.019-.074.037-.045.055-.074zm-.574-14.524l.017.036-.015-.03v-.006l-.039-.081a.911.911 0 01-.021-.1.7.7 0 00.054.191zm-.131-2.832l.014.022-.014-.022-.019-.029zm-.408-.358l-.012.008-.019-.029c.021.034.027.031.027.031zm-8.829-7.654a4.63 4.63 0 00-.562-.279 1.821 1.821 0 01.559.289zm-1.765-.818a.465.465 0 01.135.028l.055.036a.835.835 0 00-.194-.055zm.189-.12c.031-.048-.091-.155-.246-.281.151.135.28.231.242.291zm-3.352-1.825l.148.07-.373-.127zm-2.978-1.767l.463.1.063.02a2.714 2.714 0 00-.533-.1zM31.62.241c-.029.007-.046.016-.1.026v-.01zm-5 .162l.069.005-.284.013zM6.508 14.679v.11a.2.2 0 010-.11zm-.041.17l-.005.009c-.035.014-.076.037-.114.053.045-.032.082-.043.118-.064zM.932 32.59c-.013.04-.025.081-.055.047l-.006-.064c.031.066.046.046.06.015zm.692 5.373v.009zm3.074 5.9l-.235-.571c.033.044.065.091.1.135a2.555 2.555 0 00.217.552c-.03-.041-.055-.081-.083-.118zm2 3.769a8.8 8.8 0 01-1.2-2.273c-.03-.094-.07-.191-.109-.287a2.576 2.576 0 01.222.412 4.333 4.333 0 00.46.786 1.722 1.722 0 00.142.132 17.478 17.478 0 001.986 2.448l-.056.067c-.234.162-.854-.584-1.442-1.287zm1.749-5.569c.158-.007.2-.216.127-.595l.136.67c.109.408-.119.089-.26-.077zm.347 5.179c.034.017-.04-.13.051-.033s.019.067.062.155zm1.973.019l.032-.023c.026-.019.118.1.135.092-.023.017-.135-.092-.164-.071zm.87 1.279c.087.048.25.233.321.256.041.049 0 0 .018.027l.11.11-.051-.039a2.992 2.992 0 01-.395-.356zm.428 5.633l-.046-.051.21.188zm1.173-.494c0-.008-.009-.023-.007-.032-.2-.217-.316-.4-.506-.612l-.061-.036s.034.014.007-.008l.054.044c.469.367.533.512.506.612.038.043.06.077.108.124zm2.106-3.464l.235.088c-.044 0 .011.073.021.108a2.4 2.4 0 01-.253-.197zm1.528 3.377l.008-.012.021.027c-.02-.019-.025-.016-.025-.016zm3.138.238a1.221 1.221 0 00.267.072c-.086-.023-.107.011-.263-.073zm1.534.8c.028.012.03.009.03.009l-.028-.012c-.021-.005-.034 0-.053-.007a1.04 1.04 0 01-.645-.1 1.6 1.6 0 01-.394-.157c-.018-.009-.026 0-.044-.015l-.192-.086.235.1c.133.058.267.111.394.157.222.055.408.047.645.1h.028c.006 0-.006-.011 0-.013l-.247-.27-.038-.025.025.01c-.014-.018-.051-.046-.068-.066a6.364 6.364 0 01-.793-.58l-.007.012-.653-.4.58.345.08.043a2.64 2.64 0 01.793.58c.046.029.075.061.123.09l-.055-.024.013.014c.2.126.4.248.247.27zm.76.126l-.327-.138c.112.04.243.111.389.149zm1.688 2.155v-.01zm1.61-.749c.036-.014-.078-.05-.073-.07a.624.624 0 00.161.1zm2.225.51v-.01l.058.023zm1.46.205a4.324 4.324 0 00-.486-.213l.57.031c.117.059.2.125-.08.178zm2.32-1.806a.783.783 0 00.224.061.164.164 0 00.082.03v.007a.212.212 0 01-.081-.037l-.278-.055c.057-.003.057-.01.057-.01zm.3.439h.029a.838.838 0 01-.2.059 1.08 1.08 0 00.172-.063zm4.77 2.434l-.016.014a.212.212 0 01-.1.087l.1-.087a.084.084 0 00.011-.05c.006.039.1.057.174.084a1.246 1.246 0 00-.165-.052zm2.5-2.866c-.115.036-.264.1-.28.041-.054.015-.006-.021-.089 0a.068.068 0 00.011-.013l.066-.024.012.042.174-.02.106-.021c.02-.006.044-.015.061-.018v.006zm5.779-2.6c-.389.182-.735.32-.869.25-.192-.056.2-.276.533-.486.142-.092.323-.224.215-.243-.23.048-.546.282-.716.263.289-.222.666-.345.972-.587-.073.018-.119.024-.142.011l-.037.012.024-.016h.013c.066-.021.126-.036.142-.011a.583.583 0 01.19-.114c.4-.15.814-.527 1.236-.7a6.114 6.114 0 001.515-1.167l.025-.015.042-.038-.022.018c.351-.481-.115-.09-.4.122l-.128.1-.075.042c-.235.059-.64.431-.876.481a26.371 26.371 0 002.879-2.472c.059-.059.125-.121.192-.183a.137.137 0 00-.018.036c-.06.113.044.036.12-.063a1.335 1.335 0 00.111-.15l-.017-.01a.873.873 0 00.3-.438 1.274 1.274 0 01.224-.5c.23-.11.57-.439.721-.407-.134.213-.191.331-.18.414a10.428 10.428 0 00-.891 1.472 8.12 8.12 0 01-.786 1.312c-.238.263-.456.522-.663.778-.058.04-.115.083-.173.122a33.12 33.12 0 01-3.46 2.162zm1.278-.23l.126-.073a.576.576 0 00.116-.053.559.559 0 01.149-.069.689.689 0 00-.149.069 1.936 1.936 0 01-.241.121z" fill="#deb299" fill-rule="evenodd"/><path class="a" d="M8.158 11.266c-.106.306-.849 1.123-.98 1.522 1.181-1.372 1.232-1.323.98-1.522zM.69 26.923c.1-.347.167-.893.294-1.2.327-.659.359-1.641.65-2.43l.23-.67c.2-.4.313-1.048.55-1.472.1-.235.173-.414.248-.592a10.784 10.784 0 011.031-2.3l.048-.119.049-.082c.755-1.242 1.339-2.336 1.9-3.357l.477-.713c.149-.251.267-.479.222-.51 0-.008-.006-.009-.01-.012.167-.29.336-.578.512-.861A30.206 30.206 0 002.2 20.833c-.022-.1-.125.092-.2.329-.184.578-.414 1.166-.558 1.733a7.5 7.5 0 00-.478 1.7L.71 25.709c-.114.343-.177.826-.268 1.178a2.283 2.283 0 01-.06.353 4.976 4.976 0 00-.2 1.231l-.053.394c-.034.159-.1.354-.112.485 0 .495-.009.953-.013 1.448a.409.409 0 00.021.1c.021.033.036.033.058-.064a1.531 1.531 0 00.1-.4H.176c.066-.227.055-.585.1-.876a2 2 0 01.017-.293 2.774 2.774 0 00.157-.838 2.991 2.991 0 01-.089.289l-.039.126v-.033c.012-.026.023-.061.035-.092.031-.1.06-.2.089-.289.141-.377.1-1.1.252-1.54zm52.718-15.856a7.706 7.706 0 00-1.861-1.884c.612.49 1.261 1.473 1.861 1.884zm3.252 4.403l.623 1.175a5.33 5.33 0 00.3.507c.18.2.11-.052-.023-.316a11.151 11.151 0 00-1.284-2.254l-.2-.308c-.17-.242-.35-.484-.41-.445-.087-.03.072.218.191.406.28.432.545.916.803 1.235zM10.562 9.093a.582.582 0 00-.276.183l-.306.345.3-.2c.176-.14.316-.284.282-.328zm-1.271 1.278l.07-.165-.286.224c.019.021-.08.156-.016.125a2.129 2.129 0 00.232-.184zM57.51 44.583c-.068.089-.085-.084-.205.269-.023.073-.025.152-.009.16a2.535 2.535 0 00.221-.3c.062-.137.081-.25-.007-.129zm2.382-19.362c.092.06 0-.333-.031-.552l-.264-1.295c-.108-.237-.17-.221-.163.039l.255 1.289c.071.284.151.528.203.519zM46.052 6.734l.128.12-.062-.1z"/><path class="c" d="M31.492 43.764a.482.482 0 01-.482-.482V20.529a.482.482 0 01.344-.461l10.615-3.169a.482.482 0 01.619.462v22.753a.482.482 0 01-.344.462l-10.615 3.169a.5.5 0 01-.137.019zm.481-22.876v21.748l9.652-2.881V18.007z"/><path class="c" d="M31.492 43.764a.5.5 0 01-.138-.02l-10.615-3.169a.482.482 0 01-.344-.462V17.36a.482.482 0 01.619-.462l10.615 3.169a.481.481 0 01.344.461v22.753a.482.482 0 01-.481.482zM21.359 39.75l9.651 2.881V20.887l-9.651-2.881z"/><path class="c" d="M31.491 43.764a.482.482 0 01-.137-.943l10.271-3.066v-20.16a.481.481 0 01.44-.48l3.466-.306a.482.482 0 01.524.48v22.753a.481.481 0 01-.44.48l-14.08 1.243zm11.1-23.731v20.08a.482.482 0 01-.344.462l-6.064 1.81 8.91-.786V19.813z"/><path class="c" d="M31.492 43.764h-.043L17.37 42.521a.481.481 0 01-.44-.479V19.287a.482.482 0 01.157-.356.494.494 0 01.367-.124l3.466.306a.481.481 0 01.44.48v20.162l10.271 3.066a.482.482 0 01-.137.943zm-13.6-2.165l8.909.786-6.063-1.81a.482.482 0 01-.344-.462v-20.08l-2.5-.22z"/></svg>