<svg xmlns="http://www.w3.org/2000/svg" width="60" height="60" viewBox="0 0 60 60"><defs><style>.a{fill:#d8a286;fill-rule:evenodd}</style></defs><path class="a" d="M32.942 59.285c.29-.141 1.386-.193 1.758-.381-1.794.134-1.796.064-1.758.381zM.681 28.171a7.652 7.652 0 00-.017 2.631c-.084-.77.148-1.92.017-2.631zm28.877 31.085a.58.58 0 00.322.065l.457-.028-.351-.068c-.225-.025-.422-.026-.428.031zm1.804-.009l-.166.067.358.044c0-.028.165-.053.1-.076a2.1 2.1 0 00-.292-.035zM34.373.517l3.142.7 1.2.361a19.621 19.621 0 012.521.914l-.057-.052 1.208.544c.377.121.826.429 1.2.568.654.373 1.333.7 1.9 1.084a3.609 3.609 0 00.779.454l1.519 1.038c.2.09.524.389.691.464a2.174 2.174 0 10-.574-.616l-1.8-1.23a5.607 5.607 0 00-1.566-.9l-1.181-.629a17.182 17.182 0 00-2.044-.893l-.762-.325a4.756 4.756 0 00-1.292-.443l-.481-.155a1.749 1.749 0 00-.413-.124l-.381-.1a19.784 19.784 0 00-3.6-.881c-.322-.046-.507-.035-.518.031s.192.132.509.19zm11.3 4.152l.027.019a1.911 1.911 0 01.391.259l-.391-.259a.3.3 0 00-.031-.013zm10.082 42.68l-.013.02c-.016.023-.026.051-.042.073z"/><path d="M59.8 34.861v-.051a9.853 9.853 0 00.183-2.371 1.685 1.685 0 00-.07.192 2.455 2.455 0 00-.011-.483l-.023-.107.013-.142.023-1.959-.074-.388a32.359 32.359 0 00-1.013-5.553l-.155-.4a47.334 47.334 0 00-1.615-4.513l-.226-.321-.174-.419a1.814 1.814 0 00-.362-.754 12.313 12.313 0 00-1.6-2.664 44.841 44.841 0 00-2.984-3.549c-.528-.549-.833-1.117-1.373-1.617-.525-.46-.614-.278-1.364-.887-.807-.6-1.588-1.28-2.461-1.9l-.051.068c-.012-.043-.048-.106.051-.068l-.34-.234-.05.069-1.055-.716-.391-.155-.125-.058-.077-.068c-.3-.235-.734-.376-.892-.576.2 0 .854.378.915.285a5.007 5.007 0 00-2.478-.992c-.238-.134-.575-.3-.55-.354.2-.158-.336-.334-1.025-.563-.562-.178-.727-.131-.708.006l-.378-.156a1.489 1.489 0 00-.413-.161l.053.044a3.865 3.865 0 00-.408-.172c-.483-.169-1.252-.357-.994-.48.206-.084-.109-.224-.674-.393a3.836 3.836 0 00-1.427-.283c.564.174 1.222.494 1.009.61-.242-.043-.522-.114-.807-.18a2.8 2.8 0 00-.551-.449c-.061-.077-.127-.145-.4-.213a.855.855 0 00-.469-.549c.268.019.557.046.844.073a9.158 9.158 0 012.489.772 5.682 5.682 0 001.643.5l2.3.956a53.44 53.44 0 015.4 2.867l-.034-.015c.972.592 1.816 1.461 2.757 2.153a7.822 7.822 0 011.221 1.079l.441.413c.3.259.606.6.9.911.9 1.09 1.764 2.039 2.52 3.074l-.069-.163.038.058.031.106a6.223 6.223 0 00.75 1l.128.174.1.183a14.524 14.524 0 001.075 1.889 3.447 3.447 0 01.2.34c.2.451.424.9.619 1.242.041.1.048.1.068.091.034.026.033-.013.011-.123a10.374 10.374 0 00-1.53-3.355l-.685-1.058a18.472 18.472 0 00-4.9-5.585 3.047 3.047 0 00-.666-.546 3.12 3.12 0 00-.684-.471l-.642-.51-1.037-.873a20.234 20.234 0 00-5.037-3.028c-.808-.373-1.7-.638-2.555-1.079-.63-.347-1.464-.677-1.191-.267.041.09-.5-.068-.844-.172-.647-.181-1.385-.44-2.084-.582a.948.948 0 01-.276-.065 1.268 1.268 0 00-.484-.1.984.984 0 01-.314-.063 18.9 18.9 0 00-1.837-.489 4.668 4.668 0 00-.8-.165c-.038-.074-.152-.136-.48-.173a3.205 3.205 0 00-.447-.066l-.108.018h-.038l.146-.021c-.074-.065-.224-.105-.6-.106L30.579.05v.007c-.037-.047-.187-.061-.45-.065a.838.838 0 01-.3.016c-.691.052-1.384.149-2.074.268a6.218 6.218 0 00-1.19.034 31.928 31.928 0 00-4.939.7v.028l-.007-.028a13.022 13.022 0 00-2.5.582 4.371 4.371 0 00-1.25.322 5.2 5.2 0 00-.965.282c-.44.158-.262.209-.519.334a1.392 1.392 0 00-.425.276c-.115.089-.669.331-.527.383.062.047.183.056.461-.011.118.082.446.041.923-.088l.09-.054v.006a.326.326 0 00-.093.048l1 .168c.043.111.179.179.614.091-.236.143-.466.289-.682.445a6.512 6.512 0 00-1.843 1.112 18.338 18.338 0 00-2.558 1.92l.056-.044c-.4.422-1.069.809-1.351 1.2v-.006a8.042 8.042 0 00-.673.653l-.061.091-.111.091-1.179 1.13a6.639 6.639 0 00-1.444 1.421c-.539.717-1.583 1.842-2.172 2.746a15.228 15.228 0 00-1.836 2.9l.049-.042c-.024.057-.03.053-.03.053l-.019-.011a27.37 27.37 0 00-1.629 3.227 10.6 10.6 0 00-.815 2.192c-.061.191-.123.382-.179.575a19.136 19.136 0 00-1.116 4.682 7 7 0 00-.051 2.3.386.386 0 01-.016.251 2.42 2.42 0 00-.092.758 8.351 8.351 0 00.057 2.367l.024.028c-.006 0-.016 0-.024-.028a3.476 3.476 0 00.088 1.281h.007a9.5 9.5 0 00.133 1.234.575.575 0 01.035.252 2.127 2.127 0 00.079.8 3.481 3.481 0 00.427 1.4 3.6 3.6 0 00.343 1.021l.394 1.266a16.793 16.793 0 00.822 2.057l.312.761a4.707 4.707 0 00.6 1.215l.233.445a1.715 1.715 0 00.206.377l.2.34a19.53 19.53 0 001.939 3.137c.2.258.337.379.392.34s-.037-.236-.223-.5l-1.745-2.687-.6-1.091a19.3 19.3 0 01-1.146-2.4v.076l-.474-1.227c-.183-.349-.283-.878-.448-1.235a26.006 26.006 0 00-.17-.58c.019.034.034.07.056.1h-.007l.127.224-.05-.237v.018-.031.012a2.071 2.071 0 00-.026-.338 2.667 2.667 0 00-.135-.78l-.018.005h-.007l.024-.007a1.188 1.188 0 00-.02-.259 24.163 24.163 0 00.874 2.667c.3.825.744 1.632 1.029 2.536.2.682.547 1.494.649 1.015.037-.092.308.4.473.707.327.577.663 1.272 1.054 1.857a.931.931 0 01.148.237 1.216 1.216 0 00.27.407.927.927 0 01.176.263 12.981 12.981 0 003.529 4.462 5.879 5.879 0 01.616.631 4.973 4.973 0 001.118 1.134 31.275 31.275 0 004.004 2.936l.008-.012.008-.011-.015.024a12.825 12.825 0 002.187 1.324 4.332 4.332 0 001.117.64 5.161 5.161 0 00.886.469c.424.194.337.035.608.125a1.417 1.417 0 00.5.1c.146.017.712.229.649.095-.01-.077-.089-.167-.334-.313-.024-.139-.286-.337-.716-.578l-.1-.024v-.007a.341.341 0 00.1.031l-.588-.815c.058-.129-.014-.3-.606-.632-.056-.115-.177-.252-.228-.38.428.2.9.38 1.315.523.445.15.707.136.74.055.108-.092-.391-.271-.689-.42-.358-.174-.632-.37-.653-.475-.041-.14.476.074.737.131a29.787 29.787 0 003.069.927 5.393 5.393 0 001.5.329l-.029-.021.033.007v.014a10.716 10.716 0 002.017.348.868.868 0 01-.153-.064l.032.007.121.057a7.765 7.765 0 001.94.162l-.064-.021.065.008v.014a13.331 13.331 0 003.231.109c.9-.133 2.446-.2 3.515-.435a15.727 15.727 0 003.391-.779h-.065c.058-.023.059-.016.059-.016l.005.02a27.51 27.51 0 006.174-2.418 20.679 20.679 0 003.692-2.183c.046.05.167.025.4-.145l.116-.139v.005l-.121.133a1.1 1.1 0 00.4-.082 6.237 6.237 0 01-.9.658l.026-.02c-.316.173-.751.505-1.056.628-.7.23-1.417.892-2.184 1.238l-.638.307c-.431.139-.965.511-1.433.641l-.6.239a10.968 10.968 0 01-2.364.885l-.118.049-.093.023c-2.425.581-4.192 1.209-6.063 1.638a31.115 31.115 0 0010.189-2.927l.7-.347a6.273 6.273 0 001.816-.942l.97-.6c.324-.159.712-.452 1.025-.634a2.294 2.294 0 01.294-.2 5 5 0 001.014-.717l.317-.237c.137-.087.32-.18.423-.26l.449-.432a1.331 1.331 0 00.428-.322l.036-.019h-.005c.06.007.175-.087.366-.267a.8.8 0 01.2-.217 28.674 28.674 0 002.631-3.669 11.881 11.881 0 00.8-1.387 3.878 3.878 0 00.55-.924c.1-.133.2-.259.3-.38a23.711 23.711 0 001.522-4.691 6.269 6.269 0 00.5-2.065 17.735 17.735 0 00.425-3.132zm-5.717-22.014l-.018.012s.009-.006 0-.039zM16.867 2.641c-.008-.02-.053-.032.045-.082.028-.027.1-.039.128-.062-.086.068-.182.122-.173.144zm3.7 56.72c-.008.02.014.06-.091.027-.039 0-.1-.041-.135-.046.107.012.213.041.223.019zM57.96 29.583h-.014v-.065zm-.187 3.958a7.914 7.914 0 00-.009-1.831 6.54 6.54 0 01.007 1.831zm.049-11.95c-.031-.028-.1-.19-.132-.212l-.058-.238.189.451zm-.244 3.64h.014c-.008.036-.02.14-.047.079a.492.492 0 00.031-.079zm-.576 5.968h.007l-.008.033zm-.675-2.252c.008.126.049.188.032.282-.018.253-.064-.026-.1-.152.028-.001.062-.003.062-.129zm-.4 4.441h.021l-.014.063c-.013.031-.008-.062-.008-.062zm-6.129 15.513l.149-.266a11.028 11.028 0 011.008-2.069 10.19 10.19 0 01-1.008 2.069.64.64 0 00-.021.118zm-37.729-.435c-.032-.019-.078-.069-.108-.081h-.005l-.018-.022-.068-.065a.483.483 0 01.065.068l.024.017.057.035c.02.024.036.035.054.052zm-5.16-1.5l-.038-.048c.055.035.078.018.063-.047l-.016-.027c.008.007.014.016.023.023-.274-.514-.508-1.2-.274-1.131.274.387.57.953.909 1.34l.5.72c.268.641.318.766.184.959-.164-.282-.406-.561-.657-.906a4.284 4.284 0 00-.669-.978c.015.067-.002.08-.024.097zm.815-9.373l.024-.006v.061zm-.388 1.727a.193.193 0 00-.114-.061.837.837 0 01-.148.4c.034-.165.027-.416.148-.4a1.85 1.85 0 00.036-.352c.052.174.017.245.079.415zm-.942 5.086l-.03-.057a2.593 2.593 0 00.307.439l-.022.012zm-.461-2.727l-.118-.2-.054-.153zm-.918-3.741c-.025.006-.067-.051-.111-.139l-.013-.064c.037.095.093.214.13.206zm-2.67-2.4a.533.533 0 01-.045-.115h.007a.306.306 0 00.039.123zm.766 2.762c-.055.017-.024.2.04.432a1.364 1.364 0 01-.154-.461c.01-.09.07-.014.115.037zm1.41-1.599a1.755 1.755 0 01-.2-.587 4.479 4.479 0 00.2.587zm.214 1.539c-.019-.2-.041-.353.029-.37-.058.012-.05.172-.031.369zm-2.781-9.06v.058H1.94v-.059zm-.178 1.174v.028c0 .01 0 .021-.007.032l-.052.424-.008.123v-.06l.007-.061a2.376 2.376 0 01.052-.424zm-.493 4.59a.081.081 0 00.074-.035l.025.248a1.211 1.211 0 00-.1-.213c-.077-.009-.162-.139-.244-.271a.777.777 0 01.243.269zm3.816 7.854l.155.372a1.433 1.433 0 00.175.4l-.006-.069a3.86 3.86 0 00.165.405c.22.454.628 1.12.357 1.029-.075-.031-.106-.007-.1.06l-.238-.462H5.6c0-.217-.308-.6-.453-.94a3.652 3.652 0 00-.269-.849c.099.111.17.115.219.052zm7.5-32.367l.009-.013zm19.922-6.029l-.006.038c0 .031-.159.007-.162.028-.001-.033.157-.033.162-.067zm-1.949-.26c-.064-.006 0 0-.032-.006h-.157l.064-.008a3.109 3.109 0 01.536-.026c-.1.023-.35.005-.416.038zm.414.285a.467.467 0 01-.095 0h-.029l-.065.015h-.07c.036-.009.105-.006.135-.018v-.007h.029zm20.98 37a.381.381 0 01.088-.155l.016.008c-.036.052-.119.239-.109.147zm.067.2l-.025.045.006-.055-.027.031c-.009.01 0-.013 0-.018s.022-.013.036-.033l-.011.021zm3.019-8.45l-.032.239a.326.326 0 00-.027-.155c.018-.086.036-.053.054-.082zm-.574-14.523l.017.036-.015-.03v-.006l-.039-.081a.907.907 0 01-.021-.1.706.706 0 00.053.182zm-.131-2.833l.014.022-.014-.022-.019-.029zm-.408-.358l-.012.008-.019-.029c.02.026.025.023.025.023zm-8.83-7.654a4.577 4.577 0 00-.561-.279 1.8 1.8 0 01.556.281zm-1.765-.818a.441.441 0 01.135.028l.055.036a.8.8 0 00-.195-.062zm.189-.12c.031-.048-.091-.156-.246-.282.149.128.278.224.24.284zm-3.352-1.826l.148.07-.372-.126zm-2.979-1.767l.463.1.063.019a2.712 2.712 0 00-.533-.1zM31.619.247c-.029.007-.046.016-.1.026v-.01zm-5 .162l.07.005-.284.013zM6.507 14.674v.109a.2.2 0 01-.003-.106zm-.041.169l-.005.009c-.035.015-.076.037-.114.053.042-.024.079-.038.116-.058zM.93 32.584c-.013.04-.025.082-.055.047l-.006-.064c.029.072.044.052.058.021zm.692 5.373v.009zm3.075 5.9l-.235-.572c.033.044.064.091.1.135a2.542 2.542 0 00.217.552c-.033-.033-.058-.071-.086-.111zm2 3.768a8.82 8.82 0 01-1.2-2.273 4.387 4.387 0 00-.109-.286 2.568 2.568 0 01.223.411 4.327 4.327 0 00.46.785 1.655 1.655 0 00.141.132 17.407 17.407 0 001.986 2.448l-.057.067c-.235.173-.856-.576-1.444-1.279zm1.75-5.569c.158-.007.2-.216.127-.594l.136.669c.105.415-.123.096-.263-.07zm.347 5.179c.034.018-.04-.13.051-.033s.019.067.062.155zm1.973.019l.032-.023c.026-.019.118.1.135.092-.027.024-.139-.085-.167-.064zm.87 1.279c.086.048.25.233.321.256.04.049 0 0 .018.027l.11.109-.052-.039a2.972 2.972 0 01-.398-.348zm.428 5.634l-.045-.052.21.188zm1.174-.495c0-.008-.01-.023-.007-.031-.2-.217-.316-.4-.506-.613l-.061-.036s.034.014.007-.007l.054.044c.469.367.533.512.506.613.038.042.06.078.108.123zm2.106-3.464l.235.088c-.044 0 .011.073.02.108a2.43 2.43 0 01-.256-.19zm1.528 3.377l.008-.011.021.027c-.027-.013-.029-.01-.029-.01zm3.139.238a1.208 1.208 0 00.267.072c-.091-.019-.112.018-.268-.066zm1.534.8c.028.012.03.009.03.009l-.028-.012c-.021-.005-.033 0-.053-.007a1.037 1.037 0 01-.644-.1 1.6 1.6 0 01-.395-.157c-.017-.009-.025 0-.043-.015l-.192-.086.235.1c.134.058.268.111.395.157.222.055.408.047.644.1h.028c.006 0-.007-.011 0-.013l-.247-.27-.038-.026.025.011c-.013-.018-.05-.046-.067-.066a6.374 6.374 0 01-.793-.58l-.007.013-.653-.4.58.345.08.043a2.655 2.655 0 01.793.58c.046.029.075.061.123.09l-.056-.024.014.015c.2.125.4.247.247.27zm.76.126l-.327-.139c.111.04.243.111.389.15zm1.688 2.155v-.01zm1.61-.748c.036-.015-.079-.05-.073-.071a.619.619 0 00.161.1zm2.225.51v-.01l.058.023zm1.46.2a4.319 4.319 0 00-.486-.213l.57.032c.112.069.195.135-.085.188zm2.32-1.805a.8.8 0 00.224.06.164.164 0 00.082.03v.007a.212.212 0 01-.081-.037l-.278-.054c.052.007.052 0 .052 0zm.3.438h.029a.812.812 0 01-.2.059 1.083 1.083 0 00.168-.057zm4.771 2.434l-.016.015a.212.212 0 01-.1.087l.1-.087a.082.082 0 00.011-.049c.006.038.1.057.174.084a1.264 1.264 0 00-.173-.044zm2.5-2.865c-.115.035-.264.1-.281.04-.054.015-.005-.021-.089 0a.127.127 0 00.011-.007l.066-.025.011.042.175-.02.106-.02c.02-.006.044-.016.06-.019v.006zm5.779-2.6c-.389.182-.735.32-.869.251-.192-.057.2-.276.533-.486.142-.092.322-.224.215-.242-.23.047-.546.282-.716.263.289-.222.666-.345.972-.587-.073.018-.119.024-.142.011l-.037.012.023-.015h.014c.066-.021.126-.036.142-.011a.589.589 0 01.19-.114c.4-.15.815-.527 1.236-.7a6.117 6.117 0 001.515-1.167l.025-.015.042-.038-.022.018c.351-.481-.115-.09-.4.123l-.128.1-.075.042c-.235.059-.64.432-.876.481a26.4 26.4 0 002.879-2.472c.059-.059.125-.121.192-.183a.165.165 0 00-.018.036c-.059.113.044.036.121-.063a1.435 1.435 0 00.111-.15l-.016-.01a.872.872 0 00.3-.438 1.267 1.267 0 01.224-.5c.23-.11.57-.439.722-.406-.134.213-.191.331-.18.414a10.467 10.467 0 00-.892 1.472 8.088 8.088 0 01-.786 1.312c-.238.263-.456.522-.663.778-.058.04-.115.083-.173.122a33.147 33.147 0 01-3.466 2.167zm1.278-.23l.126-.073a.538.538 0 00.116-.053.589.589 0 01.15-.069.7.7 0 00-.15.069 1.84 1.84 0 01-.245.131z" fill="#deb299" fill-rule="evenodd"/><path class="a" d="M8.105 11.268c-.1.3-.843 1.116-.974 1.512 1.175-1.363 1.225-1.314.974-1.512zM.685 26.867c.1-.345.165-.887.292-1.189.325-.654.356-1.63.646-2.415l.228-.666c.2-.4.311-1.042.547-1.462l.247-.589a10.716 10.716 0 011.025-2.289l.048-.118.049-.081c.751-1.235 1.331-2.321 1.884-3.336l.474-.708c.148-.25.265-.477.221-.507 0-.008-.006-.009-.01-.012.166-.288.334-.573.509-.856a30.015 30.015 0 00-4.661 8.176c-.022-.1-.124.092-.2.327-.183.574-.412 1.158-.554 1.722a7.452 7.452 0 00-.475 1.688l-.253 1.107C.588 26 .526 26.48.436 26.83a2.208 2.208 0 01-.06.352 4.966 4.966 0 00-.2 1.223l-.053.391c-.034.158-.1.352-.111.482 0 .492-.009.947-.013 1.439a.4.4 0 00.021.1c.021.034.035.033.057-.063a1.5 1.5 0 00.1-.393H.162c.065-.225.054-.581.1-.871a2 2 0 01.017-.291 2.757 2.757 0 00.156-.832 2.913 2.913 0 01-.088.288l-.039.125v-.033c.013-.026.024-.06.036-.092.031-.1.06-.2.088-.288.141-.374.1-1.094.25-1.53zm52.766-15.871a7.657 7.657 0 00-1.849-1.872c.604.486 1.256 1.463 1.849 1.872zm3.23 4.469l.619 1.167a5.312 5.312 0 00.3.5c.179.2.11-.052-.023-.314a11.064 11.064 0 00-1.275-2.24l-.2-.306c-.169-.242-.348-.481-.408-.443-.086-.03.071.216.19.4.278.441.541.919.797 1.236zm-46.188-6.43a.576.576 0 00-.273.181l-.3.343.3-.2c.169-.141.31-.28.273-.324zm-1.261 1.27l.07-.165-.285.223c.02.02-.079.154-.016.124a2.123 2.123 0 00.231-.182zm48.293 34.279c-.067.088-.083-.083-.2.268-.023.072-.026.152-.009.16a2.589 2.589 0 00.219-.3c.06-.136.079-.248-.01-.128zm2.368-19.371c.091.06 0-.33-.031-.548l-.262-1.287c-.107-.235-.169-.219-.162.039l.253 1.281c.071.281.149.525.202.515zM46.053 6.692l.127.119-.062-.1z"/><path d="M48.265 27.876a8.1 8.1 0 00-1.228-2.286 8.224 8.224 0 00-4.182-2.907 8.783 8.783 0 00-2.539-.329 8.031 8.031 0 00-2.5.471 7.939 7.939 0 00-2.854 1.775l-1.339-1.339v3.789h3.789l-1.466-1.466a6.521 6.521 0 014.393-1.658 7.185 7.185 0 012.027.332 6.5 6.5 0 013.22 2.4 6.248 6.248 0 01.891 1.806 6.285 6.285 0 01-.072 3.944 6.179 6.179 0 01-.942 1.737 6.257 6.257 0 01-3.185 2.2 6.831 6.831 0 01-1.927.242 6.08 6.08 0 01-4.862-2.687l-.174-.254c-.011-.018-.021-.037-.034-.055l-3.141-4.6-2.344-3.434c-.007-.01-.013-.022-.02-.031a8.608 8.608 0 00-4.308-3.15 8.468 8.468 0 00-2.651-.417 9.153 9.153 0 00-2.638.423 8.46 8.46 0 00-4.211 3.114 8.222 8.222 0 00-1.174 2.356 8.242 8.242 0 00.074 5.161 8.117 8.117 0 001.225 2.288 8.215 8.215 0 004.175 2.9 8.776 8.776 0 002.535.331 8.036 8.036 0 002.5-.469 7.955 7.955 0 003.021-1.939l1.34 1.34V33.68h-3.789l1.492 1.493a6.539 6.539 0 01-4.589 1.817 7.162 7.162 0 01-2.03-.337 6.5 6.5 0 01-3.222-2.411 6.3 6.3 0 01-.89-1.81 6.294 6.294 0 01.079-3.949 6.146 6.146 0 01.945-1.738 6.264 6.264 0 013.191-2.2 6.815 6.815 0 011.929-.239 6.073 6.073 0 014.831 2.656l.02.033 2.377 3.478 3.337 4.889v.007a8.616 8.616 0 004.311 3.148 8.47 8.47 0 002.652.415 9.137 9.137 0 002.638-.425 8.46 8.46 0 004.212-3.117 8.274 8.274 0 001.173-2.359 8.25 8.25 0 00-.077-5.166z" fill="#fff"/></svg>