<svg xmlns="http://www.w3.org/2000/svg" width="60" height="60" viewBox="0 0 60 60"><defs><style>.a{fill:#d8a286;fill-rule:evenodd}.c{fill:none;stroke:#f4f4f5;stroke-linecap:round;stroke-linejoin:round;stroke-width:1.5px}</style></defs><path class="a" d="M32.928 59.275c.294-.143 1.406-.2 1.782-.387-1.819.136-1.82.065-1.782.387zM.691 28.155a7.76 7.76 0 00-.017 2.668c-.086-.783.149-1.95.017-2.668zm28.861 31.09a.589.589 0 00.326.066l.464-.028-.357-.069c-.227-.025-.427-.026-.433.031zm1.809-.006l-.168.068.363.044c0-.028.167-.054.1-.077a2.138 2.138 0 00-.295-.035zM34.223.523l3.186.706 1.213.366a19.977 19.977 0 012.557.927l-.058-.053 1.225.552c.383.122.837.435 1.213.576.663.378 1.351.71 1.928 1.1a3.634 3.634 0 00.79.461l1.541 1.053c.2.091.531.393.7.47a4.446 4.446 0 00.39.226 4.4 4.4 0 00-.972-.85L46.112 4.81a5.679 5.679 0 00-1.588-.915l-1.2-.637a17.421 17.421 0 00-2.072-.905l-.773-.33a4.844 4.844 0 00-1.31-.449l-.487-.157a1.747 1.747 0 00-.419-.126l-.387-.106a20.09 20.09 0 00-3.649-.894c-.326-.047-.514-.035-.525.032s.199.143.521.2zm11.458 4.21l.028.018a1.985 1.985 0 01.4.263l-.4-.263c-.011 0-.022-.01-.032-.012zm10.016 42.615l-.013.021c-.016.024-.026.051-.043.075z"/><path d="M59.801 34.86v-.052a9.871 9.871 0 00.183-2.37 1.629 1.629 0 00-.07.192 2.479 2.479 0 00-.01-.483l-.023-.107.013-.142.023-1.96-.073-.387a32.383 32.383 0 00-1.013-5.553l-.155-.4a47.359 47.359 0 00-1.615-4.513l-.225-.322-.174-.419a1.821 1.821 0 00-.362-.753 12.323 12.323 0 00-1.6-2.665 45.022 45.022 0 00-2.984-3.549c-.528-.549-.833-1.117-1.373-1.617-.525-.46-.614-.278-1.364-.888-.807-.6-1.588-1.28-2.46-1.9l-.051.068c-.012-.043-.048-.106.051-.068l-.34-.234-.05.069-1.055-.716-.391-.155-.125-.058-.077-.068c-.3-.235-.734-.376-.892-.576.2 0 .854.378.914.285a5 5 0 00-2.477-.992c-.238-.134-.575-.3-.55-.355.2-.157-.336-.334-1.025-.562-.561-.178-.727-.131-.709.006l-.378-.156a1.465 1.465 0 00-.413-.161l.054.044a3.9 3.9 0 00-.409-.172c-.482-.169-1.251-.357-.993-.481.206-.084-.109-.223-.674-.393a3.849 3.849 0 00-1.427-.282c.564.174 1.222.494 1.009.61-.242-.043-.522-.114-.807-.18a2.777 2.777 0 00-.551-.449c-.06-.077-.126-.145-.4-.213a.856.856 0 00-.468-.549c.268.018.557.046.844.073a9.151 9.151 0 012.489.771 5.662 5.662 0 001.643.5l2.3.956A53.59 53.59 0 0146.955 6.4l-.034-.014c.972.591 1.815 1.461 2.757 2.152a7.866 7.866 0 011.221 1.08l.441.412c.3.259.605.6.9.912.9 1.09 1.764 2.039 2.519 3.074l-.069-.163.038.058.031.106a6.254 6.254 0 00.75 1l.128.174.1.184a14.464 14.464 0 001.075 1.888 3.55 3.55 0 01.2.34c.2.452.424.9.619 1.243.041.1.048.1.068.091.034.026.033-.013.012-.123a10.384 10.384 0 00-1.53-3.356l-.685-1.057a18.471 18.471 0 00-4.9-5.585 3.045 3.045 0 00-.666-.546 3.164 3.164 0 00-.684-.472l-.641-.51-1.037-.873a20.225 20.225 0 00-5.036-3.028c-.808-.373-1.7-.638-2.555-1.079-.629-.347-1.464-.677-1.19-.267.041.091-.5-.067-.844-.171-.647-.181-1.385-.44-2.083-.582a.967.967 0 01-.276-.065 1.268 1.268 0 00-.484-.1.963.963 0 01-.314-.064A18.772 18.772 0 0032.949.57a4.7 4.7 0 00-.8-.165c-.038-.074-.152-.135-.48-.173a3.211 3.211 0 00-.447-.066l-.109.018h-.038l.146-.021c-.074-.065-.223-.105-.6-.106l-.039-.012v.007c-.037-.047-.187-.061-.45-.065a.837.837 0 01-.3.016c-.691.052-1.384.149-2.074.268a6.223 6.223 0 00-1.19.034 31.917 31.917 0 00-4.938.7v.028l-.006-.028a13.057 13.057 0 00-2.5.582 4.4 4.4 0 00-1.25.322 5.242 5.242 0 00-.965.282c-.44.158-.262.21-.52.334a1.381 1.381 0 00-.424.276c-.115.089-.668.331-.527.383.062.047.183.055.461-.011.118.082.445.04.923-.088l.09-.055v.007a.33.33 0 00-.092.048l1 .168c.044.111.179.179.614.091-.235.143-.465.289-.681.445a6.509 6.509 0 00-1.843 1.113 18.365 18.365 0 00-2.557 1.919l.056-.043c-.4.422-1.069.808-1.351 1.2v-.006a8.089 8.089 0 00-.672.652l-.061.092-.11.091-1.179 1.13a6.621 6.621 0 00-1.444 1.421c-.538.717-1.582 1.842-2.172 2.746a15.2 15.2 0 00-1.836 2.9l.049-.042c-.024.056-.03.053-.03.053l-.019-.01a27.31 27.31 0 00-1.629 3.227 10.576 10.576 0 00-.814 2.191c-.061.192-.123.383-.179.576a19.138 19.138 0 00-1.116 4.682 7 7 0 00-.051 2.3.388.388 0 01-.016.251 2.409 2.409 0 00-.093.759 8.362 8.362 0 00.057 2.367l.023.028h.005c-.005 0-.015 0-.023-.028a3.473 3.473 0 00.071 1.268h.007a9.488 9.488 0 00.133 1.234.578.578 0 01.035.252 2.127 2.127 0 00.079.8 3.483 3.483 0 00.426 1.4 3.6 3.6 0 00.343 1.021l.394 1.267a16.858 16.858 0 00.821 2.057l.311.761a4.691 4.691 0 00.605 1.215l.233.445a1.691 1.691 0 00.206.377l.2.34a19.568 19.568 0 001.939 3.137c.2.258.337.379.392.34s-.037-.236-.223-.5l-1.745-2.687-.6-1.091a19.277 19.277 0 01-1.146-2.406v.077l-.474-1.228c-.183-.349-.283-.878-.448-1.235a26.006 26.006 0 00-.17-.58c.019.034.034.07.055.1h-.006l.127.223-.05-.236a.137.137 0 010 .018v-.03.012a2.077 2.077 0 00-.026-.338 2.669 2.669 0 00-.136-.78l-.017.005h-.006l.023-.008a1.158 1.158 0 00-.019-.259 24.173 24.173 0 00.874 2.667c.3.825.744 1.632 1.029 2.536.2.682.547 1.494.649 1.015.036-.092.308.4.473.707.327.577.663 1.272 1.054 1.857a.96.96 0 01.148.238 1.207 1.207 0 00.27.406.928.928 0 01.176.263 12.986 12.986 0 003.528 4.462 5.831 5.831 0 01.617.63 4.945 4.945 0 001.118 1.134 31.2 31.2 0 003.994 2.934l.007-.012.008-.012-.015.024a12.81 12.81 0 002.187 1.324 4.331 4.331 0 001.116.64 5.142 5.142 0 00.885.469c.424.194.337.034.608.125a1.428 1.428 0 00.5.1c.146.017.712.229.649.095-.011-.078-.09-.167-.334-.313-.024-.139-.286-.338-.716-.578l-.1-.024v-.007a.347.347 0 00.1.031l-.588-.815c.059-.129-.013-.3-.6-.632-.056-.115-.177-.252-.228-.38.428.2.9.381 1.315.523.445.15.707.136.74.055.108-.093-.391-.271-.689-.42-.358-.174-.633-.37-.653-.475-.041-.14.475.074.737.131a30 30 0 003.069.927 5.372 5.372 0 001.5.329l-.029-.021.032.008v.013a10.7 10.7 0 002.017.348.97.97 0 01-.153-.064l.032.006.121.058a7.765 7.765 0 001.94.162l-.064-.022.065.008v.014a13.353 13.353 0 003.231.109c.9-.133 2.446-.2 3.514-.435a15.775 15.775 0 003.39-.779h-.065c.057-.023.06-.017.06-.017l.005.021a27.485 27.485 0 006.173-2.419 20.646 20.646 0 003.691-2.182c.046.05.167.024.4-.146l.117-.138v.005l-.121.133a1.081 1.081 0 00.4-.081 6.231 6.231 0 01-.9.658l.026-.02c-.316.173-.751.505-1.056.627-.7.231-1.417.892-2.184 1.238l-.638.307c-.431.139-.965.512-1.433.642l-.6.239a10.92 10.92 0 01-2.364.884l-.118.049-.093.023c-2.424.58-4.191 1.209-6.062 1.638a31.093 31.093 0 0010.187-2.928l.7-.346a6.27 6.27 0 001.815-.942l.97-.6c.324-.159.711-.452 1.025-.634a2.276 2.276 0 01.294-.2 5.013 5.013 0 001.014-.717l.317-.237c.137-.087.319-.179.423-.259l.449-.432a1.335 1.335 0 00.428-.323l.035-.018h-.005c.06.007.175-.087.365-.267a.8.8 0 01.2-.217 28.787 28.787 0 002.63-3.669 11.907 11.907 0 00.8-1.387 3.889 3.889 0 00.55-.924c.1-.133.2-.259.3-.379a23.693 23.693 0 001.522-4.691 6.27 6.27 0 00.5-2.065 17.727 17.727 0 00.425-3.132zm-5.716-22.014l-.017.012s.009-.006 0-.039zM16.875 2.64c-.008-.02-.053-.032.044-.082.029-.027.1-.039.128-.062-.087.069-.187.122-.173.145zm3.7 56.72c-.008.02.014.06-.091.027-.039 0-.1-.041-.135-.046.105.013.211.042.221.02zm37.388-29.778h-.015v-.065zm-.187 3.958a7.915 7.915 0 00-.008-1.831 6.528 6.528 0 01.003 1.832zm.05-11.95c-.031-.028-.1-.19-.132-.212l-.058-.239c.063.163.145.357.185.453zm-.244 3.639h.014c-.008.036-.02.14-.047.079a.482.482 0 00.028-.077zm-.575 5.969h.007l-.008.033zm-.674-2.252c.008.126.049.188.032.282-.018.253-.063-.026-.1-.152.023 0 .056-.002.062-.128zm-.4 4.441h.021l-.014.063c-.015.032-.012-.061-.012-.061zM49.8 48.91l.149-.266a11.017 11.017 0 011.009-2.069 10.214 10.214 0 01-1.009 2.069.646.646 0 00-.02.118zm-37.723-.435c-.032-.019-.078-.069-.108-.081h-.005l-.018-.022-.068-.065a.493.493 0 01.065.068l.023.017.056.035c.021.015.038.026.055.043zm-5.159-1.5l-.038-.047c.055.035.078.017.063-.047 0-.009-.011-.018-.016-.026.009.007.015.016.023.023-.274-.514-.508-1.2-.274-1.131a16.042 16.042 0 00.909 1.34l.5.72c.268.641.318.765.183.959-.164-.281-.405-.561-.657-.906a4.266 4.266 0 00-.669-.978c.018.055-.002.068-.024.085zm.815-9.373l.024-.006v.061zm-.388 1.727a.2.2 0 00-.115-.062.835.835 0 01-.148.4c.034-.165.026-.416.148-.4a1.809 1.809 0 00.036-.352c.052.166.018.237.079.407zm-.942 5.086l-.031-.057a2.612 2.612 0 00.307.439l-.022.012zm-.461-2.727l-.118-.2-.054-.153zm-.918-3.74c-.024.006-.067-.051-.11-.139l-.013-.064c.036.085.091.203.123.195zm-2.669-2.4a.538.538 0 01-.045-.115h.007a.3.3 0 00.043.112zm.766 2.762c-.055.017-.023.2.04.431a1.363 1.363 0 01-.154-.461c.009-.099.069-.023.114.03zm1.406-1.609a1.744 1.744 0 01-.2-.587 4.452 4.452 0 00.2.585zm.214 1.54c-.019-.2-.041-.353.029-.37-.056.011-.048.171-.029.367zM1.96 29.18v.059h-.015v-.06zm-.178 1.175v.028c0 .01 0 .021-.008.032l-.052.424-.008.123V30.9l.008-.061a2.444 2.444 0 01.052-.424zm-.493 4.59a.082.082 0 00.074-.035c.009.1.016.156.025.248a1.183 1.183 0 00-.1-.213c-.078-.009-.162-.139-.243-.271a.789.789 0 01.245.268zm3.816 7.854l.154.372a1.412 1.412 0 00.176.4l-.006-.069a3.735 3.735 0 00.165.405c.22.454.628 1.12.357 1.029-.075-.031-.106-.007-.1.06l-.238-.462h-.006c0-.217-.308-.6-.453-.94a3.678 3.678 0 00-.269-.849c.1.11.175.114.221.051zm7.5-32.367l.009-.013zm19.919-6.029l-.006.038c0 .031-.159.008-.162.028.004-.034.159-.034.164-.069zm-1.948-.26c-.063-.006 0 0-.032-.007h-.157l.065-.008a3.1 3.1 0 01.536-.025c-.1.022-.35.007-.416.037zm.414.285a.473.473 0 01-.1 0h-.029l-.065.014h-.07c.036-.009.105-.006.135-.018v-.007h.028zm20.977 37a.378.378 0 01.087-.155l.016.007c-.034.052-.117.239-.11.147zm.067.2l-.025.045.006-.055-.027.031v-.018c0-.005.022-.013.036-.033l-.011.021zm3.019-8.45l-.032.239a.326.326 0 00-.027-.155c.018-.087.037-.052.054-.083zm-.575-14.524l.018.036-.015-.03v-.006l-.039-.081a.769.769 0 01-.021-.1.722.722 0 00.052.182zm-.13-2.832l.014.022-.014-.022-.019-.029zm-.408-.358l-.012.008-.019-.029c.02.025.026.022.026.022zM45.111 7.81a4.574 4.574 0 00-.561-.279 1.817 1.817 0 01.556.279zm-1.765-.818a.456.456 0 01.135.028l.056.036a.829.829 0 00-.196-.064zm.19-.119c.031-.048-.091-.155-.246-.281.149.125.278.218.241.281zm-3.351-1.825l.148.07-.373-.127zm-2.978-1.767l.463.1.063.02a2.717 2.717 0 00-.534-.1zM31.624.251c-.029.007-.046.016-.1.026v-.01zm-5 .162l.07.005-.284.013zM6.515 14.678v.11a.2.2 0 01-.003-.111zm-.041.17l-.005.009c-.035.014-.076.037-.114.053.042-.029.079-.043.116-.063zM.939 32.589c-.013.04-.025.081-.056.047l-.005-.064c.029.067.044.047.058.016zm.691 5.373v.009zm3.075 5.9l-.235-.571c.033.044.064.091.1.135a2.546 2.546 0 00.217.552c-.032-.04-.058-.08-.085-.117zm2 3.769a8.8 8.8 0 01-1.2-2.273 4.642 4.642 0 00-.109-.287 2.569 2.569 0 01.222.412 4.3 4.3 0 00.459.785 1.7 1.7 0 00.141.132 17.474 17.474 0 001.985 2.448l-.056.067c-.233.167-.854-.582-1.442-1.285zm1.749-5.569c.158-.007.2-.216.127-.595l.136.67c.106.409-.122.09-.263-.076zm.347 5.179c.034.017-.041-.13.051-.033s.019.067.062.155zm1.973.019l.032-.023c.026-.019.118.1.135.092-.026.018-.138-.091-.167-.07zm.87 1.279c.086.048.25.233.32.256.041.049 0 0 .018.027l.111.11-.052-.039a3.016 3.016 0 01-.397-.355zm.428 5.633l-.045-.051.21.188zm1.173-.494c0-.008-.009-.023-.007-.032-.2-.217-.316-.4-.507-.612l-.06-.036s.033.014.007-.008l.053.044c.47.367.533.512.507.612.038.043.059.077.108.123zm2.106-3.463l.235.088c-.044 0 .011.073.02.108a2.353 2.353 0 01-.255-.201zm1.528 3.377l.008-.012.021.027c-.027-.019-.029-.016-.029-.016zm3.138.238a1.2 1.2 0 00.267.072c-.09-.026-.11.008-.266-.073zm1.533.8c.028.011.029.009.029.009l-.028-.011c-.021-.005-.034 0-.053-.007a1.038 1.038 0 01-.645-.1 1.6 1.6 0 01-.395-.157c-.017-.009-.025 0-.043-.015l-.192-.086.235.1c.133.058.268.111.395.157.223.055.409.047.645.1h.028c.006 0-.006-.011 0-.013l-.246-.27-.039-.025.025.01c-.013-.018-.05-.046-.067-.066a6.379 6.379 0 01-.793-.58l-.007.012-.653-.4.58.345.08.043a2.637 2.637 0 01.793.58c.046.029.075.061.123.09l-.056-.024.014.014c.2.126.4.248.246.27zm.76.127l-.328-.139c.112.04.244.111.39.149zm1.688 2.155v-.01zm1.609-.749c.036-.014-.078-.05-.073-.07a.621.621 0 00.161.1zm2.225.51v-.01l.058.023zm1.461.205a4.293 4.293 0 00-.486-.213l.571.031c.112.058.195.124-.084.177zm2.32-1.806a.772.772 0 00.223.061.167.167 0 00.083.03v.007a.218.218 0 01-.082-.037l-.277-.055c.053-.004.053-.011.053-.011zm.3.439h.029a.832.832 0 01-.2.06 1.122 1.122 0 00.168-.061zm4.77 2.434l-.016.015a.214.214 0 01-.1.087l.1-.087a.086.086 0 00.011-.05c.006.039.1.057.174.084a1.312 1.312 0 00-.172-.055zm2.5-2.866c-.115.036-.265.1-.281.041-.054.015-.005-.021-.09 0a.06.06 0 00.012-.013l.066-.024.011.042.175-.02.106-.021c.019-.006.044-.015.06-.018v.006zm5.779-2.6c-.389.182-.735.321-.869.25-.192-.056.2-.276.532-.486.142-.092.322-.224.215-.243-.23.048-.545.282-.716.263.289-.222.666-.345.972-.587-.073.018-.119.024-.142.011l-.037.012.024-.016h.014c.066-.021.126-.036.142-.011a.581.581 0 01.189-.114c.4-.15.815-.527 1.236-.7a6.113 6.113 0 001.515-1.167l.024-.015.042-.038-.022.018c.351-.481-.115-.09-.4.122l-.128.1-.075.042c-.235.059-.64.431-.876.481a26.357 26.357 0 002.879-2.472c.059-.059.125-.121.192-.183a.173.173 0 00-.018.036c-.059.113.044.036.121-.064a1.431 1.431 0 00.11-.15l-.017-.01c.163-.162.3-.318.3-.438a1.275 1.275 0 01.225-.5c.23-.11.57-.439.721-.406-.133.213-.191.331-.179.414a10.415 10.415 0 00-.891 1.472 8.087 8.087 0 01-.786 1.312 19.08 19.08 0 00-.664.778c-.058.04-.114.083-.173.122a33.12 33.12 0 01-3.462 2.161zm1.277-.23l.126-.073a.549.549 0 00.117-.053.568.568 0 01.149-.069.7.7 0 00-.149.069 1.92 1.92 0 01-.246.12z" fill="#deb299" fill-rule="evenodd"/><path class="a" d="M8.218 11.259c-.106.309-.855 1.132-.987 1.533 1.19-1.377 1.241-1.328.987-1.533zM.692 26.987c.1-.349.167-.9.3-1.2.329-.664.361-1.653.655-2.448l.231-.675c.206-.407.316-1.056.554-1.483l.251-.6a10.832 10.832 0 011.039-2.321l.048-.119.049-.083c.761-1.251 1.35-2.354 1.911-3.382l.481-.718c.15-.253.269-.483.224-.513 0-.008-.006-.009-.01-.012.168-.292.338-.582.516-.868a30.445 30.445 0 00-4.726 8.29c-.023-.1-.126.092-.2.331-.186.582-.418 1.174-.562 1.746a7.56 7.56 0 00-.481 1.712l-.256 1.122c-.115.345-.179.833-.27 1.187a2.216 2.216 0 01-.061.356 5.075 5.075 0 00-.2 1.24l-.053.4c-.035.16-.1.357-.113.489 0 .5-.009.96-.013 1.459a.4.4 0 00.021.1c.021.034.036.034.057-.064a1.517 1.517 0 00.1-.4H.176c.066-.228.055-.589.1-.883a1.958 1.958 0 01.017-.3 2.782 2.782 0 00.157-.844 2.706 2.706 0 01-.089.292l-.038.126v-.034a.936.936 0 00.035-.093l.089-.292c.143-.38.1-1.109.254-1.552zM53.36 11.149a7.764 7.764 0 00-1.875-1.9c.614.495 1.273 1.486 1.875 1.9zm3.275 4.328l.627 1.183a5.383 5.383 0 00.307.511c.182.2.111-.052-.024-.319a11.211 11.211 0 00-1.293-2.271l-.2-.31c-.171-.244-.352-.487-.413-.448-.088-.03.072.219.192.409.278.436.544.923.804 1.245zM10.644 9.161a.583.583 0 00-.277.184l-.308.348.3-.2c.175-.147.317-.288.285-.332zM9.36 10.449l.071-.167-.289.225c.02.021-.08.157-.016.126a2.168 2.168 0 00.234-.184zM57.491 44.58c-.068.089-.085-.085-.207.271-.024.073-.026.153-.01.161a2.471 2.471 0 00.223-.307c.065-.133.084-.247-.006-.125zm2.401-19.35c.092.06 0-.335-.031-.556l-.266-1.3c-.109-.238-.172-.222-.165.039l.257 1.3c.073.28.152.526.205.517zM46.051 6.785l.129.121-.062-.1z"/><g transform="translate(18.776 17.839)"><ellipse class="c" cx="8.302" cy="2.076" rx="8.302" ry="2.076"/><path class="c" d="M16.605 2.491v3.08c0 1.371-3.717 2.482-8.3 2.482s-8.3-1.111-8.3-2.482v-3.08"/><path class="c" d="M16.605 5.812v3.911c0 1.371-3.717 2.482-8.3 2.482s-8.3-1.111-8.3-2.482V5.812"/><path class="c" d="M11.307 15.873a25.992 25.992 0 01-3.035.172c-4.569 0-8.273-1.108-8.273-2.474V9.133m16.606.83v2.491"/><path class="c" d="M8.656 20.199h-.384c-4.569 0-8.273-1.107-8.273-2.473v-5.27"/><path class="c" d="M9.157 24.063q-.436.013-.884.014C3.704 24.077 0 22.97 0 21.604v-4.169"/><circle class="c" cx="7.472" cy="7.472" r="7.472" transform="translate(11.623 14.944)"/><path class="c" d="M16.605 25.737h3.321a1.66 1.66 0 001.66-1.661 1.66 1.66 0 00-1.66-1.66h-1.661a1.66 1.66 0 01-1.66-1.661 1.66 1.66 0 011.66-1.661h3.321m-2.491-1.659v1.66m0 6.642v1.66"/></g></svg>