<svg xmlns="http://www.w3.org/2000/svg" width="1080" height="1080" viewBox="0 0 1080 1080"><rect vector-effect="non-scaling-stroke" x="-540" y="-540" rx="0" ry="0" width="1080" height="1080" fill="#fff" transform="translate(540 540)"/><path vector-effect="non-scaling-stroke" d="M32.93 88.48h1017.6v937.44H32.93V88.48zm0 0h1017.6v937.44H32.93V88.48zm0 0h1017.6v937.44H32.93V88.48zm0 0h1017.6v937.44H32.93V88.48z" fill="none"/><path vector-effect="non-scaling-stroke" d="M541.73 322.84c160.696 0 304.008 83.198 373.968 214.83-25.016 47.653-60.208 88.666-102.184 121.867l59.784 55.075c58.936-48.044 105.576-108.196 134.832-176.942-73.352-171.473-254.4-292.95-466.4-292.95-53.848 0-105.576 7.812-154.336 22.264l69.96 64.45c27.56-5.079 55.544-8.594 84.376-8.594zm-45.368 44.528l87.768 80.855c24.168 9.765 43.672 27.732 54.272 49.996l87.768 80.855c3.392-13.28 5.936-27.342 5.936-41.795.424-96.868-85.224-175.379-190.376-175.379-15.688 0-30.528 1.953-45.368 5.468zM118.154 239.642l113.632 104.681C162.674 394.32 107.978 460.722 75.33 537.67c73.352 171.473 254.4 292.95 466.4 292.95 64.448 0 126.352-11.327 183.168-32.03l145.008 133.586 59.784-55.075-751.752-692.924-59.784 55.465zm318 292.95L546.818 634.54c-1.696.39-3.392.781-5.088.781-58.512 0-106-43.747-106-97.65 0-1.953.424-3.125.424-5.078zm-144.16-132.804l74.2 68.355c-9.752 21.483-15.264 44.92-15.264 69.527 0 96.869 85.648 175.77 190.8 175.77 26.712 0 52.152-5.078 75.048-14.062l41.552 38.28c-37.312 9.374-76.32 14.842-116.6 14.842-160.696 0-304.008-83.198-373.968-214.83 29.68-55.856 72.928-101.947 124.232-137.882z"/></svg>