<svg xmlns="http://www.w3.org/2000/svg" width="1080" height="1080" viewBox="0 0 1080 1080"><rect width="100%" height="100%" fill="transparent"/><rect vector-effect="non-scaling-stroke" x="-540" y="-540" rx="0" ry="0" width="1080" height="1080" fill="#fff" transform="translate(540 540)"/><path vector-effect="non-scaling-stroke" d="M32.88 36.49h1014.96v1014.96H32.88V36.49z" fill="none"/><path vector-effect="non-scaling-stroke" d="M540.36 290.23c160.28 0 303.22 90.078 372.998 232.595C843.579 665.342 700.639 755.42 540.36 755.42c-160.28 0-303.22-90.078-372.998-232.595C237.141 380.308 380.081 290.23 540.36 290.23m0-84.58c-211.45 0-392.028 131.522-465.19 317.175C148.332 708.478 328.91 840 540.36 840s392.028-131.522 465.19-317.175C932.388 337.172 751.81 205.65 540.36 205.65zm0 211.45c58.36 0 105.725 47.365 105.725 105.725 0 58.36-47.365 105.725-105.725 105.725-58.36 0-105.725-47.365-105.725-105.725 0-58.36 47.365-105.725 105.725-105.725m0-84.58c-104.88 0-190.305 85.426-190.305 190.305 0 104.88 85.426 190.305 190.305 190.305 104.88 0 190.305-85.426 190.305-190.305 0-104.88-85.426-190.305-190.305-190.305z"/></svg>